{
  "asset": {
    "generator": "Khronos glTF Blender I/O v5.1.20",
    "version": "2.0"
  },
  "scene": 0,
  "scenes": [
    {
      "name": "Scene",
      "nodes": [
        0,
        1
      ]
    }
  ],
  "nodes": [
    {
      "mesh": 0,
      "name": "fish_knife_handle",
      "rotation": [
        0,
        0,
        -0.7071068286895752,
        0.7071068286895752
      ],
      "translation": [
        0,
        -0.050075042992830276,
        0.003533247159793973
      ]
    },
    {
      "mesh": 1,
      "name": "fish_knife_blade",
      "rotation": [
        0,
        0,
        0.6984508633613586,
        0.7156580686569214
      ],
      "translation": [
        -0.0000030449882615357637,
        -0.00030762702226638794,
        -0.007039854768663645
      ]
    }
  ],
  "materials": [
    {
      "doubleSided": true,
      "name": "fish_knife",
      "normalTexture": {
        "index": 0
      },
      "pbrMetallicRoughness": {
        "baseColorTexture": {
          "index": 1
        },
        "metallicRoughnessTexture": {
          "index": 2
        }
      }
    }
  ],
  "meshes": [
    {
      "name": "Plane.003",
      "primitives": [
        {
          "attributes": {
            "POSITION": 0,
            "NORMAL": 1,
            "TEXCOORD_0": 2
          },
          "indices": 3,
          "material": 0
        }
      ]
    },
    {
      "name": "Plane.006",
      "primitives": [
        {
          "attributes": {
            "POSITION": 4,
            "NORMAL": 5,
            "TEXCOORD_0": 6
          },
          "indices": 7,
          "material": 0
        }
      ]
    }
  ],
  "textures": [
    {
      "sampler": 0,
      "source": 0
    },
    {
      "sampler": 0,
      "source": 1
    },
    {
      "sampler": 0,
      "source": 2
    }
  ],
  "images": [
    {
      "mimeType": "image/jpeg",
      "name": "fish_knife_nor_gl",
      "uri": "textures/fish_knife_nor_gl_1k.jpg"
    },
    {
      "mimeType": "image/jpeg",
      "name": "fish_knife_diff",
      "uri": "textures/fish_knife_diff_1k.jpg"
    },
    {
      "mimeType": "image/jpeg",
      "name": "fish_knife_metal-fish_knife_rough",
      "uri": "textures/fish_knife_arm_1k.jpg"
    }
  ],
  "accessors": [
    {
      "bufferView": 0,
      "componentType": 5126,
      "count": 2202,
      "max": [
        0.060182880610227585,
        0.014521927572786808,
        0.004573611542582512
      ],
      "min": [
        -0.06017252430319786,
        -0.014521926641464233,
        -0.011640106327831745
      ],
      "type": "VEC3"
    },
    {
      "bufferView": 1,
      "componentType": 5126,
      "count": 2202,
      "type": "VEC3"
    },
    {
      "bufferView": 2,
      "componentType": 5126,
      "count": 2202,
      "type": "VEC2"
    },
    {
      "bufferView": 3,
      "componentType": 5123,
      "count": 7332,
      "type": "SCALAR"
    },
    {
      "bufferView": 4,
      "componentType": 5126,
      "count": 258,
      "max": [
        0.1057860255241394,
        0.009021077305078506,
        0.008594370447099209
      ],
      "min": [
        -0.006326798349618912,
        -0.010074010118842125,
        0.005486533045768738
      ],
      "type": "VEC3"
    },
    {
      "bufferView": 5,
      "componentType": 5126,
      "count": 258,
      "type": "VEC3"
    },
    {
      "bufferView": 6,
      "componentType": 5126,
      "count": 258,
      "type": "VEC2"
    },
    {
      "bufferView": 7,
      "componentType": 5123,
      "count": 876,
      "type": "SCALAR"
    }
  ],
  "bufferViews": [
    {
      "buffer": 0,
      "byteLength": 26424,
      "byteOffset": 0,
      "target": 34962
    },
    {
      "buffer": 0,
      "byteLength": 26424,
      "byteOffset": 26424,
      "target": 34962
    },
    {
      "buffer": 0,
      "byteLength": 17616,
      "byteOffset": 52848,
      "target": 34962
    },
    {
      "buffer": 0,
      "byteLength": 14664,
      "byteOffset": 70464,
      "target": 34963
    },
    {
      "buffer": 0,
      "byteLength": 3096,
      "byteOffset": 85128,
      "target": 34962
    },
    {
      "buffer": 0,
      "byteLength": 3096,
      "byteOffset": 88224,
      "target": 34962
    },
    {
      "buffer": 0,
      "byteLength": 2064,
      "byteOffset": 91320,
      "target": 34962
    },
    {
      "buffer": 0,
      "byteLength": 1752,
      "byteOffset": 93384,
      "target": 34963
    }
  ],
  "samplers": [
    {
      "magFilter": 9729,
      "minFilter": 9987
    }
  ],
  "buffers": [
    {
      "byteLength": 95136,
      "uri": "fish_knife.bin"
    }
  ]
}